<?xml version="1.0" encoding="UTF-8"?>
<svg id="Calque_1" data-name="Calque 1" xmlns="http://www.w3.org/2000/svg" viewBox="0 0 257.700479963586076 170.573174833040866">
  <defs>
    <style>
      .cls-1 {
        fill: #ffc107;
      }

      .cls-1, .cls-2 {
        stroke-width: 0px;
      }

      .cls-2 {
        fill: #03045e;
      }
    </style>
  </defs>
  <g>
    <path class="cls-2" d="M39.708475879593607,132.414709722089356v-19.240234375h4.9404296875c4.0302734375,0,6.1884765625,2.2099609375,6.1884765625,5.1220703125,0,1.5859375-.572265625,2.6513671875-2.1064453125,3.8740234375,2.05419921875.857421875,3.1982421875,2.677734375,3.1982421875,4.732421875,0,2.6259765625-1.48193359375,5.51171875-6.5,5.51171875h-5.720703125ZM44.674784473343607,121.468420659589356c3.6923828125,0,4.23828125-2.1318359375,4.23828125-3.25,0-1.4306640625-.83203125-3.302734375-4.39404296875-3.302734375h-2.88623046875v6.552734375h3.0419921875ZM45.272929004593607,130.672522222089356c2.47021484375,0,4.732421875-.98828125,4.732421875-3.76953125,0-2.1845703125-1.8984375-3.6923828125-4.732421875-3.6923828125h-3.64013671875v7.4619140625h3.64013671875Z"/>
    <path class="cls-2" d="M54.632304004593607,132.414709722089356v-19.240234375h4.9404296875c4.0302734375,0,6.1884765625,2.2099609375,6.1884765625,5.1220703125,0,1.5859375-.572265625,2.6513671875-2.1064453125,3.8740234375,2.05419921875.857421875,3.1982421875,2.677734375,3.1982421875,4.732421875,0,2.6259765625-1.48193359375,5.51171875-6.5,5.51171875h-5.720703125ZM59.598612598343607,121.468420659589356c3.6923828125,0,4.23828125-2.1318359375,4.23828125-3.25,0-1.4306640625-.83203125-3.302734375-4.39404296875-3.302734375h-2.88623046875v6.552734375h3.0419921875ZM60.196757129593607,130.672522222089356c2.47021484375,0,4.732421875-.98828125,4.732421875-3.76953125,0-2.1845703125-1.8984375-3.6923828125-4.732421875-3.6923828125h-3.64013671875v7.4619140625h3.64013671875Z"/>
    <path class="cls-1" d="M91.682596973343607,132.414709722089356l-2.7822265625-6.474609375h-8.9443359375l-2.80810546875,6.474609375h-2.001953125l8.21630859375-19.240234375h2.158203125l8.26806640625,19.240234375h-2.10595703125ZM84.454569629593607,115.358069097089356l-3.7705078125,8.83984375h7.46240234375l-3.69189453125-8.83984375Z"/>
    <path class="cls-1" d="M106.242167285843607,132.414709722089356l-6.5263671875-8.7099609375h1.8720703125c3.40625,0,5.43408203125-1.7421875,5.43408203125-4.3681640625,0-1.8203125-1.11767578125-4.4208984375-5.5380859375-4.4208984375h-3.666015625v17.4990234375h-1.923828125v-19.240234375h5.7978515625c5.0185546875,0,7.25439453125,2.9638671875,7.25439453125,6.2138671875,0,3.1201171875-2.34033203125,5.58984375-5.72021484375,5.8505859375l5.43408203125,7.17578125h-2.41796875Z"/>
    <path class="cls-1" d="M129.902323535843607,127.370764409589356c-1.8720703125,3.353515625-5.22607421875,5.3818359375-8.86669921875,5.3818359375-5.48583984375,0-10.06201171875-4.341796875-10.06201171875-9.9326171875,0-5.6416015625,4.498046875-9.9580078125,10.0361328125-9.9580078125,3.56201171875,0,7.2802734375,2.0537109375,8.814453125,5.251953125h-2.158203125c-1.48193359375-2.2099609375-4.08203125-3.509765625-6.68212890625-3.509765625-4.2900390625,0-8.08642578125,3.7958984375-8.08642578125,8.2421875,0,4.31640625,3.79638671875,8.1640625,8.1123046875,8.1640625,2.62646484375,0,4.9921875-1.326171875,6.734375-3.6396484375h2.158203125Z"/>
    <path class="cls-1" d="M144.851542285843607,132.414709722089356v-9.0224609375h-9.95849609375v9.0224609375h-1.923828125v-19.240234375h1.923828125v8.4755859375h9.95849609375v-8.4755859375h1.92431640625v19.240234375h-1.92431640625Z"/>
    <path class="cls-1" d="M150.727518848343607,132.414709722089356v-19.240234375h1.92431640625v19.240234375h-1.92431640625Z"/>
    <path class="cls-1" d="M159.203104785843607,132.414709722089356v-17.4990234375h-4.42041015625v-1.7412109375h10.73876953125v1.7412109375h-4.39404296875v17.4990234375h-1.92431640625Z"/>
    <path class="cls-1" d="M167.522929004593607,132.414709722089356v-19.240234375h10.53076171875v1.7412109375h-8.6064453125v6.9169921875h8.3203125v1.7421875h-8.3203125v7.09765625h8.6064453125v1.7421875h-10.53076171875Z"/>
    <path class="cls-1" d="M199.686014942093607,127.370764409589356c-1.8720703125,3.353515625-5.2265625,5.3818359375-8.8662109375,5.3818359375-5.486328125,0-10.0625-4.341796875-10.0625-9.9326171875,0-5.6416015625,4.498046875-9.9580078125,10.0361328125-9.9580078125,3.5625,0,7.2802734375,2.0537109375,8.814453125,5.251953125h-2.158203125c-1.48193359375-2.2099609375-4.08203125-3.509765625-6.68212890625-3.509765625-4.2900390625,0-8.08642578125,3.7958984375-8.08642578125,8.2421875,0,4.31640625,3.79638671875,8.1640625,8.1123046875,8.1640625,2.6259765625,0,4.9921875-1.326171875,6.734375-3.6396484375h2.158203125Z"/>
    <path class="cls-1" d="M205.353007129593607,132.414709722089356v-17.4990234375h-4.419921875v-1.7412109375h10.73828125v1.7412109375h-4.39453125v17.4990234375h-1.923828125Z"/>
    <path class="cls-1" d="M221.758768848343607,118.062170659589356c0-1.9755859375-1.61181640625-3.484375-3.40576171875-3.484375-1.9765625,0-3.484375,1.482421875-3.484375,3.3544921875,0,1.6376953125.98828125,2.65234375,3.71826171875,3.353515625,4.16015625,1.06640625,5.56396484375,3.224609375,5.56396484375,5.82421875,0,3.146484375-2.57421875,5.642578125-5.7978515625,5.642578125-3.40625,0-5.87646484375-2.2880859375-5.9287109375-5.7197265625h1.92431640625c.1298828125,2.4697265625,1.68994140625,3.9775390625,4.00439453125,3.9775390625,2.18359375,0,3.8740234375-1.7158203125,3.8740234375-3.822265625,0-2.080078125-1.3779296875-3.25-3.900390625-3.9775390625-2.755859375-.7802734375-5.3818359375-1.6904296875-5.3818359375-5.2001953125,0-3.0419921875,2.44384765625-5.1748046875,5.408203125-5.1748046875,2.98974609375,0,5.330078125,2.2626953125,5.330078125,5.2265625h-1.92431640625Z"/>
  </g>
  <path class="cls-2" d="M180.452616504593607,88.621252690839356v-22.10888671875h-47.55224609375v10.85107421875h-9.29345703125v-25.533203125h-27.70849609375v12.0205078125h-4.8798828125v-31.24072265625h-15.73486328125v67.2939453125h112.77392578125v-11.28271484375h-7.60498046875ZM133.900370410843607,67.512365972089356h45.55224609375v21.10888671875h-13.34619140625v-11.2578125h-32.2060546875v-9.85107421875ZM165.106425098343607,88.621252690839356h-31.2060546875v-10.2578125h31.2060546875v10.2578125ZM76.283671192093607,98.903967534589356V33.610022222089356h13.73486328125v30.24072265625h-7.2841796875v35.05322265625h-6.45068359375ZM83.734354785843607,98.903967534589356v-34.05322265625h6.2841796875v34.05322265625h-6.2841796875ZM91.018534473343607,98.903967534589356v-34.05322265625h4.8798828125v34.05322265625h-4.8798828125ZM96.898417285843607,98.903967534589356v-34.05322265625h5.974609375v34.05322265625h-5.974609375ZM103.873026660843607,98.903967534589356v-35.05322265625h-6.974609375v-11.0205078125h25.70849609375v24.533203125h-12.84375v21.54052734375h-5.89013671875ZM110.763163379593607,98.903967534589356v-20.54052734375h11.84375v20.54052734375h-11.84375ZM123.606913379593607,98.903967534589356v-20.54052734375h9.29345703125v20.54052734375h-9.29345703125ZM133.900370410843607,98.903967534589356v-9.28271484375h6.369140625v9.28271484375h-6.369140625ZM141.269511035843607,98.903967534589356v-9.28271484375h23.8369140625v9.28271484375h-23.8369140625ZM166.106425098343607,98.903967534589356v-9.28271484375h13.34619140625v9.28271484375h-13.34619140625ZM187.057596973343607,98.903967534589356h-6.60498046875v-9.28271484375h6.60498046875v9.28271484375Z"/>
</svg>